<svg width="310" height="164" viewBox="0 0 310 164" fill="none" xmlns="http://www.w3.org/2000/svg">
<path fill-rule="evenodd" clip-rule="evenodd" d="M89.4832 0C77.3889 0 68.2055 9.36208 68.2055 25.9202C68.2055 42.4783 77.3158 51.8404 89.4832 51.8404C101.651 51.8404 110.834 42.4783 110.834 25.9202C110.834 9.36208 101.577 0 89.4832 0ZM89.4892 8.13466C96.4803 8.13466 101.291 13.7543 101.291 25.9202C101.291 38.0921 96.4133 43.7057 89.4892 43.7057C82.5652 43.7057 77.7542 38.0921 77.7542 25.9202C77.7542 13.7483 82.4982 8.13466 89.4892 8.13466ZM62.0122 35.9983C62.0122 44.4939 55.5266 51.8404 41.8246 51.8404C34.6082 51.8404 27.3979 49.6804 22.6601 46.0102L26.7402 38.7359C30.3819 41.7623 35.9236 43.7057 41.6784 43.7057C48.4563 43.7057 52.4634 40.7515 52.4634 36.0765C52.4634 31.4015 49.114 28.5856 41.3861 28.5856H36.7213V22.1778L48.3102 8.56786H25.1386V0.722011H59.899V6.98546L47.5124 21.528C57.1282 22.7494 62.0122 28.4412 62.0122 35.9983ZM20.0415 27.3582H0V34.8491H20.0415V27.3582ZM138.189 67.3032C129.621 67.3032 123.245 73.2478 123.245 81.4727V81.4847C123.245 89.7096 129.621 95.6542 138.147 95.6542C142.726 95.6542 146.636 94.0357 149.224 91.0454L145.874 87.8986C143.841 90.1007 141.332 91.1657 138.421 91.1657C132.641 91.1657 128.458 87.1525 128.458 81.4787C128.458 75.8049 132.641 71.7917 138.421 71.7917C141.332 71.7917 143.841 72.8567 145.874 75.0227L149.224 71.9121C146.636 68.9157 142.732 67.3032 138.189 67.3032ZM45.8134 95.2511V67.6943H40.631V79.072H26.2043V67.6943H21.0219V95.2511H26.2043V83.4402H40.631V95.2511H45.8134ZM55.4231 95.2511L58.1696 88.8733H72.1152H72.1212L74.9104 95.2511H80.3303L67.7366 67.6943H62.6334L50.0823 95.2511H55.4231ZM65.1424 72.8146L70.4039 84.8601H59.9234L65.1424 72.8146ZM119.414 87.6158C119.414 92.3811 115.791 95.2511 108.855 95.2511H95.6278V67.6943H108.1C114.317 67.6943 118.062 70.2153 118.062 74.7821C118.062 77.7363 116.546 79.8241 113.958 80.9252C117.466 81.8698 119.414 84.1562 119.414 87.6158ZM100.725 79.4691H107.655C111.004 79.4691 112.795 78.1334 112.795 75.5703C112.795 73.0071 111.004 71.6353 107.655 71.6353H100.725V79.4691ZM114.195 87.2247C114.195 84.469 112.283 83.2115 108.696 83.2115H100.725V91.3221H108.696C112.283 91.3221 114.195 89.9864 114.195 87.2307V87.2247ZM174.965 90.9611V95.2511H154.047V67.6943H174.405V71.9843H159.223V79.1502H172.694V83.362H159.223V90.9611H174.959H174.965ZM22.8306 133.494L25.5771 127.116H39.5227H39.5288L42.3179 133.494H47.7378L35.1441 105.937H30.0409L17.4899 133.494H22.8306ZM32.5499 111.057L37.8115 123.103H27.3309L32.5499 111.057ZM62.2741 121.881H57.0917V133.494H51.9884V105.937H57.0917V117.471H62.4324L70.4405 105.937H75.9395L66.4151 119.282L76.2988 133.494H70.4405L62.2741 121.881ZM92.6438 105.546C84.0755 105.546 77.6995 111.49 77.6995 119.715V119.727C77.6995 127.952 84.0755 133.897 92.6012 133.897C97.1807 133.897 101.09 132.278 103.678 129.288L100.329 126.141C98.2951 128.343 95.7861 129.408 92.8752 129.408C87.096 129.408 82.9123 125.395 82.9123 119.721C82.9123 114.047 87.096 110.034 92.8752 110.034C95.7861 110.034 98.2951 111.099 100.329 113.265L103.678 110.155C101.09 107.158 97.1868 105.546 92.6438 105.546ZM129.42 129.204V133.494H108.502V105.937H128.86V110.227H113.678V117.393H127.148V121.604H113.678V129.204H129.414H129.42ZM147.951 105.546C139.383 105.546 133.007 111.49 133.007 119.715V119.727C133.007 127.952 139.383 133.897 147.909 133.897C152.488 133.897 156.398 132.278 158.986 129.288L155.636 126.141C153.602 128.343 151.093 129.408 148.183 129.408C142.403 129.408 138.22 125.395 138.22 119.721C138.22 114.047 142.403 110.034 148.183 110.034C151.093 110.034 153.602 111.099 155.636 113.265L158.986 110.155C156.398 107.158 152.494 105.546 147.951 105.546ZM161.142 119.715C161.142 111.49 167.518 105.546 176.086 105.546C180.629 105.546 184.532 107.158 187.121 110.155L183.771 113.265C181.737 111.099 179.228 110.034 176.317 110.034C170.538 110.034 166.354 114.047 166.354 119.721C166.354 125.395 170.538 129.408 176.317 129.408C179.228 129.408 181.737 128.343 183.771 126.141L187.121 129.288C184.532 132.278 180.623 133.897 176.043 133.897C167.518 133.897 161.142 127.952 161.142 119.727V119.715ZM215.289 105.943L215.292 105.937V105.943H215.289ZM215.289 105.943L203.179 128.181C201.03 132.194 197.96 134.083 194.574 134.083C193.259 134.083 191.864 133.806 190.47 133.217L191.743 129.204C192.741 129.517 193.618 129.715 194.453 129.715C196.085 129.715 197.443 128.969 198.594 127.158L199.032 126.49L187.918 105.943H193.454L201.699 122.122L210.189 105.943H215.289ZM222.545 127.116L219.798 133.494H214.458L227.009 105.937H232.112L244.705 133.494H239.286L236.496 127.116H236.49H222.545ZM234.779 123.103L229.518 111.057L224.299 123.103H234.779ZM260.441 125.539C267.774 125.539 272.316 121.803 272.316 115.738H272.31C272.31 109.637 267.767 105.937 260.435 105.937H248.962V133.494H254.145V125.539H260.441ZM260.204 110.269C264.747 110.269 267.098 112.272 267.098 115.738V115.744C267.098 119.204 264.747 121.213 260.204 121.213H254.145V110.269H260.204ZM300.488 124.083C300.488 130.263 296.304 133.494 289.252 133.494H277.261V105.937H282.365V115.269H290.093C296.749 115.269 300.494 118.223 300.494 124.089L300.488 124.083ZM295.305 124.162C295.305 120.696 293.034 119.162 289.009 119.162H282.352V129.553H289.009C292.991 129.553 295.305 127.699 295.305 124.162ZM304.507 105.937H309.61V133.494H304.507V105.937ZM116.443 14.0371C116.443 5.75804 121.327 0.216603 128.61 0.216603C135.893 0.216603 140.85 5.68584 140.85 14.0371C140.85 22.3884 135.893 27.8576 128.61 27.8576C121.327 27.8576 116.443 22.3162 116.443 14.0371ZM134.876 14.0371C134.876 8.42346 132.544 5.25263 128.61 5.25263C124.676 5.25263 122.344 8.48965 122.344 14.0371C122.344 19.5845 124.822 22.8216 128.61 22.8216C132.398 22.8216 134.876 19.6567 134.876 14.0371ZM159.217 0.722011H166.36L131.527 51.1184H124.384L159.217 0.722011ZM149.888 37.7973C149.888 29.5182 154.772 23.9768 162.055 23.9768C169.338 23.9768 174.295 29.5182 174.295 37.7973C174.295 46.0763 169.338 51.6178 162.055 51.6178C154.772 51.6178 149.888 46.0763 149.888 37.7973ZM168.321 37.7973C168.321 32.2558 165.916 29.0128 162.055 29.0128C158.194 29.0128 155.789 32.1776 155.789 37.7973C155.789 43.4169 158.194 46.5817 162.055 46.5817C165.916 46.5817 168.321 43.3447 168.321 37.7973ZM23.0742 160.389C26.1617 160.389 27.7816 159.107 27.7816 156.983C27.7816 155.437 26.9108 154.42 25.3457 153.999C26.4967 153.505 27.1726 152.579 27.1726 151.261C27.1726 149.227 25.504 148.102 22.7332 148.102H17.1732V160.389H23.0742ZM22.5444 153.349H19.4508V149.853H22.5444C24.0364 149.853 24.8342 150.467 24.8342 151.61C24.8342 152.753 24.0364 153.349 22.5444 153.349ZM23.0011 155.016C24.6027 155.016 25.4553 155.581 25.4553 156.809C25.4553 158.036 24.6027 158.632 23.0011 158.632H19.4508V155.016H23.0011ZM40.8259 152.47C40.8259 155.172 38.798 156.839 35.5339 156.839H32.7265V160.383H30.4185V148.096H35.5339C38.8041 148.096 40.8259 149.745 40.8259 152.464V152.47ZM38.4996 152.47C38.4996 150.924 37.4522 150.034 35.4243 150.034H32.7265V154.913H35.4243C37.4522 154.913 38.4996 154.017 38.4996 152.47ZM52.3356 160.389V158.475H52.3295H45.3141V155.088H51.3186V153.211H45.3141V150.016H52.0859V148.102H43.0061V160.389H52.3356ZM66.3421 160.389L66.3421 160.383H68.5405L68.5039 148.096H66.6222L61.7565 156.225L56.8359 148.096H54.9359V160.383H57.1222V152.344L61.2084 158.981H62.2376L66.3238 152.242L66.3421 160.383H66.336L66.3421 160.389ZM81.536 160.383V148.096H76.3719C73.2052 148.096 71.1652 149.763 71.1652 152.609C71.1652 154.57 72.1395 155.96 73.8629 156.592L71.1956 160.383H73.6315L75.9395 156.959H79.2646V160.383H81.536ZM76.3476 155.1C74.478 155.1 73.5036 154.185 73.5036 152.573H73.5097C73.5097 150.888 74.5572 150.028 76.4389 150.028H79.2646V155.1H76.3476ZM100.353 152.47C100.353 155.172 98.3256 156.839 95.0615 156.839H92.2541V160.383H89.946V148.096H95.0615C98.3317 148.096 100.353 149.745 100.353 152.464V152.47ZM98.0272 152.47C98.0272 150.924 96.9797 150.034 94.9518 150.034H92.2541V154.913H94.9518C96.9797 154.913 98.0272 154.017 98.0272 152.47ZM103.946 157.543H110.164L111.406 160.389H113.824L108.209 148.102H105.938L100.341 160.389H102.722L103.946 157.543ZM107.058 150.377L109.403 155.75H104.732L107.058 150.377ZM128.147 158.457V163.006H126.016V160.389H116.473V163.006H114.323L114.342 158.457H114.878C116.564 158.385 116.972 155.593 117.1 151.995L117.24 148.096H126.357V158.451H128.153L128.147 158.457ZM124.079 158.457H117.776C118.734 157.466 119.013 154.998 119.122 152.212L119.213 150.034H124.079V158.457ZM136.076 147.928C132.221 147.928 129.377 150.611 129.377 154.245C129.377 157.88 132.221 160.563 136.076 160.563C139.931 160.563 142.775 157.898 142.775 154.245C142.775 150.593 139.931 147.928 136.076 147.928ZM136.076 149.925C138.585 149.925 140.449 151.736 140.449 154.245C140.449 156.76 138.585 158.565 136.076 158.565C133.567 158.565 131.704 156.754 131.704 154.245C131.704 151.736 133.567 149.925 136.076 149.925ZM155.953 156.983C155.953 159.107 154.339 160.389 151.246 160.389H145.345V148.102H150.905C153.676 148.102 155.344 149.227 155.344 151.261C155.344 152.579 154.668 153.505 153.517 153.999C155.082 154.42 155.953 155.437 155.953 156.983ZM147.622 153.349H150.716C152.208 153.349 153.006 152.753 153.006 151.61C153.006 150.467 152.208 149.853 150.716 149.853H147.622V153.349ZM153.627 156.809C153.627 155.581 152.774 155.016 151.173 155.016H147.622V158.632H151.173C152.774 158.632 153.627 158.036 153.627 156.809ZM160.612 157.543H166.829L168.072 160.389H170.489L164.875 148.102H162.603L157.007 160.389H159.388L160.612 157.543ZM163.724 150.377L166.068 155.75H161.397L163.724 150.377ZM180.799 150.028H176.677V160.383H174.387V150.028H170.282V148.096H180.799V150.028ZM188.156 160.383C191.304 160.383 193.168 158.945 193.168 156.189C193.168 153.572 191.493 152.254 188.527 152.254H185.081V148.096H182.809V160.383H188.156ZM188.052 153.993C189.848 153.993 190.858 154.678 190.86 156.222C190.858 157.802 189.829 158.626 188.052 158.626H185.087V153.993H188.052ZM200.457 148.096H210.14V149.974H202.729V152.994H206.407C209.391 152.994 210.974 154.257 210.974 156.574C210.974 159.017 209.196 160.383 206.054 160.383H200.457V148.096ZM205.932 158.626C207.71 158.626 208.648 157.94 208.648 156.64C208.648 155.34 207.741 154.745 205.932 154.745H202.735V158.626H205.932ZM223.799 148.102V148.096L223.805 148.102H223.799ZM223.799 148.102V160.383H221.528V150.028H216.626L216.516 153.102C216.358 157.946 215.627 160.563 212.947 160.563C212.558 160.563 212.168 160.491 211.687 160.389L211.845 158.403C212.022 158.457 212.18 158.475 212.381 158.475C213.891 158.475 214.354 156.652 214.476 153.192L214.652 148.102H223.799ZM227.325 148.096H229.597V156.821L236.277 148.096H238.427V160.383H236.155V151.676L229.475 160.383H227.325V148.096ZM245.503 160.563C248.347 160.563 250.832 159.227 250.832 156.947L250.838 156.959C250.838 155.539 249.93 154.45 248.457 153.993C249.608 153.517 250.32 152.567 250.32 151.339C250.32 149.161 247.957 147.88 245.223 147.88C243.835 147.88 242.361 148.193 241.046 148.897L241.776 150.738C242.86 150.106 244.103 149.805 245.168 149.805C246.733 149.805 247.976 150.437 247.976 151.61C247.976 152.579 247.16 153.174 245.771 153.174H243.055V154.967H245.948C247.507 154.967 248.487 155.509 248.487 156.616C248.487 157.928 246.995 158.65 245.217 158.65C243.956 158.65 242.556 158.277 241.435 157.525L240.686 159.191C242.148 160.124 243.889 160.563 245.503 160.563ZM258.03 155.208H255.722V160.389H253.45V148.102H255.722V153.247H258.103L261.672 148.102H264.126L259.881 154.053L264.29 160.389H261.678L258.036 155.208H258.03ZM268.157 148.096H265.886V160.383H268.035L274.716 151.676V160.383H276.987V148.096H274.838L268.157 156.821V148.096ZM281.914 148.096L284.843 152.206L287.772 148.096H290.47L286.293 153.993L290.805 160.383H288.071L284.837 155.906L281.622 160.383H278.954L283.449 154.083L279.234 148.096H281.902H281.914ZM296.079 148.548C296.749 147.856 297.674 147.477 298.685 147.477C299.58 147.477 300.463 147.771 301.182 148.313C301.755 148.74 302.187 149.294 302.461 149.937C302.741 149.294 303.173 148.74 303.74 148.313C304.458 147.771 305.341 147.477 306.237 147.477C307.247 147.477 308.173 147.856 308.843 148.548C309.598 149.33 310 150.473 310 151.857C310 152.976 309.604 154.137 308.819 155.31C308.204 156.237 307.345 157.17 306.267 158.09C304.446 159.648 302.577 160.653 302.577 160.653L302.461 160.713L302.345 160.653C302.344 160.653 302.337 160.649 302.325 160.642C302.12 160.528 300.374 159.561 298.655 158.09C297.577 157.17 296.718 156.237 296.103 155.31C295.318 154.137 294.922 152.976 294.922 151.857C294.922 150.473 295.324 149.33 296.079 148.548Z" fill="white"/>
</svg>
