<svg width="560" height="123" viewBox="0 0 560 123" fill="none" xmlns="http://www.w3.org/2000/svg">
<path fill-rule="evenodd" clip-rule="evenodd" d="M124.388 0C107.669 0 94.9741 12.9418 94.9741 35.8312C94.9741 58.7206 107.568 71.6624 124.388 71.6624C141.207 71.6624 153.902 58.7206 153.902 35.8312C153.902 12.9418 141.106 0 124.388 0ZM124.396 11.2451C134.06 11.2451 140.711 19.0135 140.711 35.8312C140.711 52.6572 133.968 60.4173 124.396 60.4173C114.824 60.4173 108.174 52.6572 108.174 35.8312C108.174 19.0052 114.732 11.2451 124.396 11.2451ZM86.4127 49.7626C86.4127 61.5067 77.4472 71.6622 58.506 71.6622C48.5303 71.6622 38.5631 68.6763 32.0136 63.6027L37.6539 53.547C42.688 57.7306 50.3487 60.4171 58.304 60.4171C67.6736 60.4171 73.2128 56.3333 73.2128 49.8707C73.2128 43.4081 68.5827 39.5156 57.8999 39.5156H51.4515V30.6576L67.4715 11.8438H35.4399V0.997925H83.4915V9.6563L66.3687 29.7594C79.6612 31.4478 86.4127 39.316 86.4127 49.7626ZM386.598 2.76477C377.946 2.76477 371.508 8.76735 371.508 17.0725V17.0847C371.508 25.3899 377.946 31.3924 386.555 31.3924C391.18 31.3924 395.127 29.7582 397.741 26.7386L394.359 23.5611C392.305 25.7848 389.771 26.8601 386.832 26.8601C380.996 26.8601 376.772 22.8078 376.772 17.0786C376.772 11.3494 380.996 7.29708 386.832 7.29708C389.771 7.29708 392.305 8.37244 394.359 10.5596L397.741 7.41859C395.127 4.393 391.186 2.76477 386.598 2.76477ZM293.321 30.9854V3.15967H288.088V14.6484H273.52V3.15967H268.288V30.9854H273.52V19.0592H288.088V30.9854H293.321ZM303.024 30.9854L305.798 24.5454H319.879H319.886L322.702 30.9854H328.175L315.458 3.15967H310.305L297.632 30.9854H303.024ZM312.839 8.3299L318.151 20.493H307.569L312.839 8.3299ZM367.64 23.2756C367.64 28.0874 363.982 30.9854 356.978 30.9854H343.622V3.15967H356.215C362.493 3.15967 366.275 5.7053 366.275 10.3166C366.275 13.2997 364.744 15.4078 362.131 16.5197C365.673 17.4735 367.64 19.7822 367.64 23.2756ZM348.768 15.0494H355.766C359.148 15.0494 360.956 13.7006 360.956 11.1125C360.956 8.52432 359.148 7.13911 355.766 7.13911H348.768V15.0494ZM362.37 22.8807C362.37 20.0981 360.44 18.8283 356.818 18.8283H348.768V27.0181H356.818C360.44 27.0181 362.37 25.6693 362.37 22.8868V22.8807ZM423.733 26.6536V30.9854H402.611V3.15967H423.168V7.49149H407.838V14.7274H421.44V18.9802H407.838V26.6536H423.727H423.733ZM270.114 69.6012L272.887 63.1612H286.969H286.975L289.791 69.6012H295.264L282.548 41.7755H277.395L264.721 69.6012H270.114ZM279.928 46.9457L285.241 59.1089H274.658L279.928 46.9457ZM309.942 57.8755H304.709V69.6012H299.556V41.7755H304.709V53.4222H310.102L318.188 41.7755H323.741L314.124 55.2509L324.104 69.6012H318.188L309.942 57.8755ZM340.608 41.3806C331.956 41.3806 325.518 47.3832 325.518 55.6884V55.7005C325.518 64.0057 331.956 70.0083 340.565 70.0083C345.19 70.0083 349.137 68.374 351.751 65.3545L348.369 62.177C346.315 64.4006 343.781 65.476 340.842 65.476C335.006 65.476 330.782 61.4236 330.782 55.6945C330.782 49.9653 335.006 45.9129 340.842 45.9129C343.781 45.9129 346.315 46.9883 348.369 49.1755L351.751 46.0344C349.137 43.0088 345.196 41.3806 340.608 41.3806ZM377.744 65.2694V69.6012H356.621V41.7755H377.178V46.1073H361.848V53.3432H375.45V57.5961H361.848V65.2694H377.737H377.744ZM396.456 41.3806C387.804 41.3806 381.366 47.3832 381.366 55.6884V55.7005C381.366 64.0057 387.804 70.0083 396.413 70.0083C401.037 70.0083 404.985 68.374 407.598 65.3545L404.216 62.177C402.162 64.4006 399.629 65.476 396.689 65.476C390.854 65.476 386.629 61.4236 386.629 55.6945C386.629 49.9653 390.854 45.9129 396.689 45.9129C399.629 45.9129 402.162 46.9883 404.216 49.1755L407.598 46.0344C404.985 43.0088 401.043 41.3806 396.456 41.3806ZM409.775 55.6884C409.775 47.3832 416.213 41.3806 424.865 41.3806C429.452 41.3806 433.394 43.0088 436.007 46.0344L432.625 49.1755C430.571 46.9883 428.038 45.9129 425.099 45.9129C419.263 45.9129 415.038 49.9653 415.038 55.6945C415.038 61.4236 419.263 65.476 425.099 65.476C428.038 65.476 430.571 64.4006 432.625 62.177L436.007 65.3545C433.394 68.374 429.446 70.0083 424.822 70.0083C416.213 70.0083 409.775 64.0057 409.775 55.7005V55.6884ZM464.45 41.7816L464.454 41.7755V41.7816H464.45ZM464.45 41.7816L452.223 64.2366C450.052 68.2889 446.953 70.1966 443.534 70.1966C442.206 70.1966 440.798 69.9172 439.389 69.3218L440.675 65.2694C441.683 65.5853 442.569 65.7858 443.411 65.7858C445.059 65.7858 446.43 65.0325 447.592 63.2037L448.035 62.5294L436.813 41.7816H442.403L450.729 58.1186L459.301 41.7816H464.45ZM471.777 63.1612L469.004 69.6012H463.611L476.285 41.7755H481.438L494.154 69.6012H488.681L485.865 63.1612H485.859H471.777ZM484.131 59.1089L478.818 46.9457L473.548 59.1089H484.131ZM510.044 61.5694C517.448 61.5694 522.035 57.7966 522.035 51.6725H522.029C522.029 45.5119 517.441 41.7755 510.038 41.7755H498.453V69.6012H503.686V61.5694H510.044ZM509.804 46.1499C514.391 46.1499 516.765 48.173 516.765 51.6725V51.6785C516.765 55.1719 514.391 57.2012 509.804 57.2012H503.686V46.1499H509.804ZM550.481 60.0992C550.481 66.3387 546.257 69.6012 539.136 69.6012H527.028V41.7755H532.181V51.1986H539.984C546.706 51.1986 550.487 54.1816 550.487 60.1052L550.481 60.0992ZM545.248 60.1782C545.248 56.6787 542.954 55.1294 538.89 55.1294H532.169V65.6218H538.89C542.911 65.6218 545.248 63.7505 545.248 60.1782ZM554.54 41.7755H559.693V69.6012H554.54V41.7755ZM28.3938 37.819H0.689148V48.1741H28.3938V37.819ZM161.655 19.4043C161.655 7.9596 168.407 0.299316 178.475 0.299316C188.543 0.299316 195.396 7.8598 195.396 19.4043C195.396 30.9488 188.543 38.5093 178.475 38.5093C168.407 38.5093 161.655 30.849 161.655 19.4043ZM187.138 19.4043C187.138 11.6442 183.913 7.26095 178.475 7.26095C173.037 7.26095 169.813 11.7357 169.813 19.4043C169.813 27.0729 173.239 31.5476 178.475 31.5476C183.711 31.5476 187.138 27.1727 187.138 19.4043ZM220.786 0.997975H230.66L182.508 70.6642H172.633L220.786 0.997975ZM207.889 52.2495C207.889 40.8049 214.64 33.1446 224.708 33.1446C234.777 33.1446 241.629 40.8049 241.629 52.2495C241.629 63.6942 234.777 71.3545 224.708 71.3545C214.64 71.3545 207.889 63.6942 207.889 52.2495ZM233.371 52.2495C233.371 44.5893 230.046 40.1062 224.708 40.1062C219.371 40.1062 216.046 44.4811 216.046 52.2495C216.046 60.018 219.371 64.3929 224.708 64.3929C230.046 64.3929 233.371 59.9182 233.371 52.2495ZM40.3881 118.188C45.9705 118.188 48.8993 115.871 48.8993 112.031C48.8993 109.235 47.3248 107.396 44.4951 106.635C46.5761 105.743 47.7983 104.067 47.7983 101.685C47.7983 98.0081 44.7814 95.9738 39.7715 95.9738H29.7188V118.188H40.3881ZM39.4302 105.46H33.8368V99.1394H39.4302C42.1278 99.1394 43.5702 100.249 43.5702 102.316C43.5702 104.383 42.1278 105.46 39.4302 105.46ZM40.256 108.473C43.1518 108.473 44.6933 109.496 44.6933 111.715C44.6933 113.934 43.1518 115.011 40.256 115.011H33.8368V108.473H40.256ZM72.4842 103.871C72.4842 108.756 68.8176 111.769 62.9159 111.769H57.84V118.177H53.667V95.9626H62.9159C68.8286 95.9626 72.4842 98.9434 72.4842 103.861V103.871ZM68.2781 103.871C68.2781 101.076 66.3843 99.4656 62.7177 99.4656H57.84V108.288H62.7177C66.3843 108.288 68.2781 106.667 68.2781 103.871ZM93.2942 118.188V114.729H93.2832H80.5989V108.604H91.4554V105.21H80.5989V99.4332H92.8428V95.9738H76.4259V118.188H93.2942ZM118.619 118.188L118.619 118.177H122.594L122.527 95.9626H119.125L110.328 110.66L101.431 95.9626H97.9958V118.177H101.949V103.643L109.337 115.642H111.197L118.586 103.458L118.619 118.177H118.608L118.619 118.188ZM146.09 118.177V95.9626H136.753C131.028 95.9626 127.339 98.976 127.339 104.122C127.339 107.668 129.101 110.181 132.217 111.323L127.394 118.177H131.798L135.971 111.987H141.983V118.177H146.09ZM136.709 108.625C133.329 108.625 131.567 106.972 131.567 104.056H131.578C131.578 101.01 133.472 99.4547 136.874 99.4547H141.983V108.625H136.709ZM180.113 103.871C180.113 108.756 176.447 111.769 170.545 111.769H165.469V118.177H161.296V95.9626H170.545C176.458 95.9626 180.113 98.9434 180.113 103.861V103.871ZM175.907 103.871C175.907 101.076 174.013 99.4656 170.347 99.4656H165.469V108.288H170.347C174.013 108.288 175.907 106.667 175.907 103.871ZM186.609 113.042H197.851L200.097 118.188H204.469L194.317 95.9738H190.21L180.091 118.188H184.396L186.609 113.042ZM192.236 100.086L196.475 109.8H188.03L192.236 100.086ZM230.366 114.696V122.92H226.512V118.188H209.258V122.92H205.371L205.404 114.696H206.373C209.423 114.565 210.161 109.517 210.392 103.012L210.646 95.9626H227.128V114.685H230.377L230.366 114.696ZM223.01 114.696H211.614C213.345 112.904 213.85 108.441 214.048 103.404L214.213 99.4656H223.01V114.696ZM244.701 95.658C237.732 95.658 232.59 100.51 232.59 107.08C232.59 113.651 237.732 118.503 244.701 118.503C251.671 118.503 256.813 113.684 256.813 107.08C256.813 100.477 251.671 95.658 244.701 95.658ZM244.701 99.2696C249.238 99.2696 252.607 102.544 252.607 107.08C252.607 111.628 249.238 114.891 244.701 114.891C240.165 114.891 236.796 111.617 236.796 107.08C236.796 102.544 240.165 99.2696 244.701 99.2696ZM280.64 112.031C280.64 115.871 277.722 118.188 272.129 118.188H261.46V95.9738H271.512C276.522 95.9738 279.539 98.0081 279.539 101.685C279.539 104.067 278.317 105.743 276.236 106.635C279.066 107.396 280.64 109.235 280.64 112.031ZM265.578 105.46H271.171C273.869 105.46 275.311 104.383 275.311 102.316C275.311 100.249 273.869 99.1394 271.171 99.1394H265.578V105.46ZM276.434 111.715C276.434 109.496 274.893 108.473 271.997 108.473H265.578V115.011H271.997C274.893 115.011 276.434 113.934 276.434 111.715ZM289.063 113.042H300.305L302.551 118.188H306.922L296.771 95.9738H292.664L282.545 118.188H286.85L289.063 113.042ZM294.69 100.086L298.929 109.8H290.484L294.69 100.086ZM325.564 99.4547H318.109V118.177H313.969V99.4547H306.548V95.9626H325.564V99.4547ZM338.864 118.177C344.557 118.177 347.926 115.577 347.926 110.594C347.926 105.862 344.898 103.48 339.536 103.48H333.304V95.9626H329.197V118.177H338.864ZM338.677 106.624C341.923 106.624 343.751 107.862 343.753 110.654C343.751 113.512 341.89 115 338.677 115H333.315V106.624H338.677ZM361.106 95.9626H378.613V99.3568H365.213V104.818H371.863C377.258 104.818 380.121 107.102 380.121 111.291C380.121 115.707 376.906 118.177 371.225 118.177H361.106V95.9626ZM371.004 115C374.219 115 375.915 113.76 375.915 111.41C375.915 109.06 374.274 107.984 371.004 107.984H365.224V115H371.004ZM403.309 95.9735V95.9626L403.32 95.9735H403.309ZM403.309 95.9735V118.177H399.203V99.4547H390.339L390.141 105.014C389.854 113.771 388.533 118.503 383.689 118.503C382.984 118.503 382.279 118.373 381.409 118.188L381.696 114.598C382.015 114.696 382.301 114.728 382.665 114.728C385.395 114.728 386.232 111.432 386.452 105.177L386.772 95.9735H403.309ZM409.685 95.9626H413.792V111.737L425.87 95.9626H429.757V118.177H425.65V102.435L413.571 118.177H409.685V95.9626ZM442.551 118.503C447.693 118.503 452.186 116.088 452.186 111.965L452.197 111.987C452.197 109.42 450.556 107.451 447.891 106.624C449.973 105.764 451.261 104.046 451.261 101.826C451.261 97.8883 446.989 95.5712 442.045 95.5712C439.534 95.5712 436.87 96.1369 434.492 97.4097L435.813 100.739C437.773 99.5963 440.019 99.0523 441.946 99.0523C444.775 99.0523 447.022 100.195 447.022 102.316C447.022 104.067 445.546 105.144 443.036 105.144H438.125V108.386H443.355C446.174 108.386 447.947 109.365 447.947 111.367C447.947 113.738 445.249 115.044 442.034 115.044C439.755 115.044 437.222 114.369 435.196 113.01L433.842 116.023C436.484 117.709 439.634 118.503 442.551 118.503ZM465.2 108.821H461.027V118.188H456.92V95.9738H461.027V105.275H465.332L471.785 95.9738H476.222L468.548 106.733L476.519 118.188H471.796L465.211 108.821H465.2ZM483.511 95.9626H479.404V118.177H483.291L495.369 102.435V118.177H499.476V95.9626H495.59L483.511 111.737V95.9626ZM508.384 95.9626L513.68 103.393L518.976 95.9626H523.854L516.3 106.624L524.459 118.177H519.516L513.669 110.083L507.855 118.177H503.033L511.159 106.787L503.539 95.9626H508.362H508.384ZM533.995 96.779C535.206 95.528 536.879 94.8427 538.707 94.8427C540.326 94.8427 541.922 95.3757 543.221 96.3548C544.257 97.1272 545.038 98.128 545.534 99.292C546.04 98.128 546.822 97.1272 547.846 96.3548C549.145 95.3757 550.742 94.8427 552.36 94.8427C554.188 94.8427 555.862 95.528 557.073 96.779C558.438 98.1933 559.165 100.26 559.165 102.762C559.165 104.786 558.449 106.885 557.029 109.007C555.917 110.682 554.364 112.368 552.415 114.033C549.123 116.85 545.743 118.667 545.743 118.667L545.534 118.776L545.325 118.667C545.323 118.666 545.311 118.659 545.289 118.647C544.918 118.442 541.761 116.693 538.652 114.033C536.703 112.368 535.151 110.682 534.039 109.007C532.618 106.885 531.903 104.786 531.903 102.762C531.903 100.26 532.629 98.1933 533.995 96.779Z" fill="white"/>
</svg>
