<svg width="77" height="77" viewBox="0 0 77 77" fill="none" xmlns="http://www.w3.org/2000/svg">
    <path d="M38.4289 71.3145C37.8684 71.3145 37.3308 71.0918 36.9345 70.6955C36.5381 70.2991 36.3155 69.7616 36.3155 69.201V7.40363C36.2449 7.09412 36.245 6.77269 36.3157 6.46322C36.3865 6.15375 36.526 5.86418 36.7239 5.61603C36.9219 5.36787 37.1732 5.16749 37.4592 5.02978C37.7453 4.89207 38.0586 4.82056 38.3761 4.82056C38.6935 4.82056 39.0069 4.89207 39.2929 5.02978C39.5789 5.16749 39.8303 5.36787 40.0282 5.61603C40.2262 5.86418 40.3657 6.15375 40.4364 6.46322C40.5072 6.77269 40.5072 7.09412 40.4367 7.40363V69.2433C40.4267 69.7787 40.2138 70.2902 39.8411 70.6747C39.4684 71.0592 38.9637 71.2878 38.4289 71.3145Z" fill="#F2ECE1"/>
    <path d="M38.4496 21.5637L30.968 14.1032C30.5743 13.7072 30.3534 13.1716 30.3534 12.6132C30.3534 12.0549 30.5743 11.5192 30.968 11.1232C31.364 10.7296 31.8996 10.5087 32.458 10.5087C33.0163 10.5087 33.552 10.7296 33.9479 11.1232L38.4496 15.6038L42.9301 11.1232C43.3261 10.7296 43.8618 10.5087 44.4201 10.5087C44.9785 10.5087 45.5141 10.7296 45.9101 11.1232C46.3037 11.5192 46.5247 12.0549 46.5247 12.6132C46.5247 13.1716 46.3037 13.7072 45.9101 14.1032L38.4496 21.5637Z" fill="#F2ECE1"/>
    <path d="M44.3466 66.1575C43.7922 66.1552 43.2609 65.9351 42.8672 65.5446L38.3233 61.0641L33.885 65.5446C33.4891 65.9382 32.9534 66.1592 32.395 66.1592C31.8367 66.1592 31.301 65.9382 30.9051 65.5446C30.707 65.3481 30.5497 65.1144 30.4424 64.8568C30.3351 64.5993 30.2799 64.3231 30.2799 64.0441C30.2799 63.7651 30.3351 63.4888 30.4424 63.2313C30.5497 62.9737 30.707 62.74 30.9051 62.5435L38.3233 55.083L45.8049 62.5435C46.003 62.74 46.1602 62.9737 46.2675 63.2313C46.3748 63.4888 46.4301 63.7651 46.4301 64.0441C46.4301 64.3231 46.3748 64.5993 46.2675 64.8568C46.1602 65.1144 46.003 65.3481 45.8049 65.5446C45.4165 65.93 44.8937 66.1497 44.3466 66.1575Z" fill="#F2ECE1"/>
    <path d="M65.629 56.2877C65.2588 56.2903 64.8944 56.1955 64.5723 56.013L9.62244 24.3112C9.14046 24.0252 8.79177 23.5596 8.65305 23.0166C8.51434 22.4736 8.59695 21.8978 8.88274 21.4157C9.02257 21.1753 9.20848 20.9649 9.4298 20.7964C9.65113 20.628 9.90352 20.5049 10.1725 20.4343C10.4415 20.3636 10.7218 20.3467 10.9973 20.3845C11.2729 20.4224 11.5382 20.5143 11.7782 20.6549L66.728 52.3567C67.1351 52.5874 67.4542 52.9467 67.6351 53.3783C67.8161 53.8099 67.8486 54.2893 67.7278 54.7414C67.6069 55.1935 67.3394 55.5926 66.9672 55.8763C66.595 56.16 66.1392 56.3121 65.6713 56.3089L65.629 56.2877Z" fill="#F2ECE1"/>
    <path d="M12.9627 32.7651C12.4022 32.838 11.8357 32.6852 11.3878 32.3404C10.9399 31.9955 10.6474 31.4869 10.5745 30.9264C10.5016 30.3659 10.6544 29.7994 10.9992 29.3515C11.3441 28.9036 11.8527 28.6111 12.4132 28.5382L18.5422 26.8897L16.8515 20.8452C16.7683 20.574 16.7406 20.2889 16.77 20.0068C16.7994 19.7247 16.8853 19.4513 17.0225 19.2031C17.1598 18.9549 17.3456 18.7368 17.5689 18.5619C17.7922 18.387 18.0484 18.2589 18.3223 18.1851C18.5961 18.1113 18.8821 18.0934 19.163 18.1324C19.444 18.1715 19.7142 18.2667 19.9575 18.4123C20.2009 18.558 20.4125 18.7512 20.5796 18.9803C20.7468 19.2095 20.8661 19.47 20.9304 19.7462L23.6779 29.8697L13.4699 32.6806C13.306 32.7338 13.135 32.7623 12.9627 32.7651Z" fill="#F2ECE1"/>
    <path d="M57.4492 58.4857C56.9693 58.5009 56.4985 58.3522 56.1143 58.0641C55.7302 57.776 55.4556 57.3656 55.3358 56.9006L52.694 46.7772L62.8808 44.0297C63.152 43.9466 63.4371 43.9189 63.7193 43.9483C64.0014 43.9777 64.2747 44.0635 64.5229 44.2008C64.7711 44.338 64.9892 44.5238 65.1641 44.7471C65.339 44.9704 65.4672 45.2266 65.541 45.5005C65.6147 45.7744 65.6326 46.0603 65.5936 46.3413C65.5546 46.6222 65.4594 46.8924 65.3137 47.1358C65.168 47.3792 64.9748 47.5907 64.7457 47.7579C64.5165 47.925 64.2561 48.0443 63.9798 48.1087L57.8508 49.7572L59.4993 55.8862C59.6411 56.427 59.5629 57.0021 59.2816 57.4853C59.0004 57.9686 58.5391 58.3207 57.9987 58.4646C57.8182 58.5036 57.6322 58.5108 57.4492 58.4857Z" fill="#F2ECE1"/>
    <path d="M10.722 56.2876C10.2541 56.2909 9.79828 56.1388 9.4261 55.8551C9.05392 55.5714 8.78641 55.1722 8.66554 54.7201C8.54466 54.2681 8.57724 53.7886 8.75818 53.3571C8.93912 52.9255 9.25817 52.5662 9.66532 52.3355L64.6151 20.6336C65.0979 20.3563 65.6705 20.2807 66.2087 20.4232C66.7469 20.5656 67.2071 20.9147 67.4894 21.3945C67.63 21.6344 67.7219 21.8998 67.7598 22.1753C67.7976 22.4509 67.7807 22.7312 67.7101 23.0001C67.6394 23.2691 67.5163 23.5215 67.3479 23.7429C67.1795 23.9642 66.969 24.1501 66.7286 24.2899L11.7788 55.9917C11.4587 56.1817 11.0942 56.2838 10.722 56.2876Z" fill="#F2ECE1"/>
    <path d="M18.9009 58.4857C18.7191 58.5177 18.5331 58.5177 18.3514 58.4857C17.811 58.3418 17.3497 57.9897 17.0685 57.5064C16.7872 57.0232 16.709 56.4481 16.8508 55.9073L18.4993 49.7783L12.3703 48.1298C12.0915 48.0616 11.8295 47.9374 11.6003 47.7647C11.3711 47.592 11.1795 47.3745 11.0371 47.1253C10.8947 46.8762 10.8046 46.6006 10.7722 46.3155C10.7398 46.0303 10.7658 45.7416 10.8486 45.4668C10.9197 45.197 11.0435 44.9439 11.213 44.7221C11.3824 44.5004 11.594 44.3144 11.8357 44.1749C12.0774 44.0354 12.3443 43.9451 12.6211 43.9093C12.8978 43.8735 13.1789 43.8929 13.4481 43.9663L23.6773 46.7771L20.9298 56.964C20.8017 57.403 20.5348 57.7886 20.1689 58.063C19.8031 58.3374 19.3581 58.4857 18.9009 58.4857Z" fill="#F2ECE1"/>
    <path d="M63.4309 32.7648C63.2489 32.7941 63.0634 32.7941 62.8814 32.7648L52.6946 29.8694L55.4209 19.6614C55.4758 19.3716 55.5908 19.0965 55.7584 18.8537C55.926 18.611 56.1426 18.4061 56.3942 18.2521C56.6458 18.0981 56.9269 17.9985 57.2193 17.9597C57.5117 17.9208 57.809 17.9437 58.0921 18.0267C58.3752 18.1097 58.6377 18.251 58.8629 18.4416C59.088 18.6321 59.2708 18.8677 59.3994 19.1332C59.5281 19.3987 59.5997 19.6881 59.6097 19.9829C59.6197 20.2777 59.5679 20.5714 59.4576 20.845L57.8091 26.9528L63.9382 28.6013C64.4987 28.6742 65.0073 28.9668 65.3521 29.4146C65.6969 29.8625 65.8497 30.429 65.7769 30.9895C65.704 31.5501 65.4114 32.0587 64.9636 32.4035C64.5157 32.7483 63.9492 32.9011 63.3887 32.8282L63.4309 32.7648Z" fill="#F2ECE1"/>
</svg>
